<svg xmlns="http://www.w3.org/2000/svg" xmlns:xlink="http://www.w3.org/1999/xlink" version="1.0" x="0px" y="0px" viewBox="0 0 74 92.5" style="enable-background:new 0 0 74 74;" xml:space="preserve"><g><path d="M31.18,52.35c-0.2-0.19-0.52-0.18-0.71,0.03c-0.19,0.2-0.18,0.52,0.02,0.71c0.04,0.04,2.96,2.7,7.05,2.7   c2.05,0,4.4-0.67,6.82-2.68c0.21-0.18,0.24-0.49,0.07-0.7c-0.18-0.21-0.49-0.24-0.7-0.07C37.17,57.78,31.42,52.57,31.18,52.35z"/><path d="M57.24,44.44c0.8,0,1.45-0.65,1.45-1.45v-1.84h1.77c0.83,0,1.5-0.67,1.5-1.5v-8.11c0-0.83-0.67-1.5-1.5-1.5h-1.77v-2.79   c0-0.8-0.65-1.45-1.45-1.45h-0.44c-0.11-4.6-2.06-8.91-5.55-12.18c-3.59-3.35-8.36-5.2-13.41-5.2c-10.32,0-18.72,7.76-18.96,17.38   h-1.2c-0.8,0-1.45,0.65-1.45,1.45v2.79h-1.82c-0.8,0-1.45,0.65-1.45,1.45v8.2c0,0.8,0.65,1.45,1.45,1.45h1.82v1.84   c0,0.8,0.65,1.45,1.45,1.45h1.35c0.33,8,8.46,19.76,18.44,19.76s18.11-11.76,18.44-19.76H57.24z M60.46,31.03   c0.28,0,0.5,0.22,0.5,0.5v8.11c0,0.28-0.22,0.5-0.5,0.5h-1.77v-9.11H60.46z M55.79,25.79H43V10.12c2.82,0.79,5.41,2.22,7.56,4.23   C53.84,17.42,55.68,21.47,55.79,25.79z M42,9.89v15.91h-9.11V10.07c1.57-0.42,3.22-0.66,4.94-0.66C39.25,9.41,40.65,9.59,42,9.89z    M31.89,10.37v15.42H19.86C20.05,18.66,25.02,12.63,31.89,10.37z M14.39,40.14c-0.25,0-0.45-0.2-0.45-0.45v-8.2   c0-0.25,0.2-0.45,0.45-0.45h1.82v9.11H14.39z M17.21,42.98v-2.34V30.54v-3.29c0-0.25,0.2-0.45,0.45-0.45h39.57   c0.25,0,0.45,0.2,0.45,0.45v3.29v10.11v2.34c0,0.25-0.2,0.45-0.45,0.45H42.41c-0.91,0-1.74-0.53-2.12-1.34   c-0.96-2.07-1.9-3.08-2.85-3.08s-1.88,1.01-2.85,3.08c-0.38,0.81-1.21,1.34-2.12,1.34H17.66C17.41,43.44,17.21,43.23,17.21,42.98z    M37.45,63.19c-9.43,0-17.11-11.15-17.44-18.76h12.47c1.3,0,2.48-0.75,3.03-1.92c0.86-1.84,1.56-2.5,1.94-2.5s1.08,0.66,1.94,2.5   c0.54,1.17,1.73,1.92,3.03,1.92h12.47C54.56,52.04,46.88,63.19,37.45,63.19z"/><path d="M20.71,41.44h11.05c0.57,0,1.08-0.32,1.34-0.83c1.23-2.41,2.66-3.59,4.35-3.59c1.69,0,3.11,1.17,4.35,3.59   c0.26,0.51,0.78,0.83,1.34,0.83h11.05c0.83,0,1.5-0.67,1.5-1.5v-9.65c0-0.83-0.67-1.5-1.5-1.5H20.71c-0.83,0-1.5,0.67-1.5,1.5v9.65   C19.21,40.76,19.88,41.44,20.71,41.44z M20.21,30.29c0-0.28,0.22-0.5,0.5-0.5h33.48c0.28,0,0.5,0.22,0.5,0.5v9.65   c0,0.28-0.22,0.5-0.5,0.5H43.14c-0.19,0-0.36-0.11-0.45-0.29c-1.42-2.78-3.14-4.13-5.24-4.13c-2.1,0-3.81,1.35-5.24,4.13   c-0.09,0.18-0.26,0.29-0.45,0.29H20.71c-0.28,0-0.5-0.22-0.5-0.5V30.29z"/><path d="M10.41,56.77c-0.4-0.4-0.97-0.56-1.53-0.43c-0.55,0.14-0.99,0.54-1.16,1.08l-3.15,9.96c-0.18,0.58-0.03,1.2,0.4,1.63   c0.31,0.31,0.72,0.47,1.14,0.47c0.16,0,0.33-0.02,0.49-0.08l9.96-3.15c0.54-0.17,0.95-0.6,1.08-1.16c0.14-0.55-0.02-1.12-0.43-1.53   L10.41,56.77z M16.27,65.32l-9.96,3.15c-0.22,0.07-0.46,0.01-0.62-0.15c-0.17-0.17-0.22-0.4-0.15-0.62l3.15-9.96   c0.07-0.21,0.23-0.36,0.44-0.41c0.05-0.01,0.1-0.02,0.15-0.02c0.16,0,0.31,0.06,0.43,0.18l6.81,6.81c0.16,0.16,0.22,0.37,0.16,0.58   C16.63,65.09,16.48,65.25,16.27,65.32z"/><path d="M63.59,17.23c0.31,0.31,0.72,0.48,1.14,0.48c0.13,0,0.26-0.02,0.39-0.05c0.55-0.14,0.99-0.54,1.16-1.08l3.15-9.96   c0.18-0.58,0.03-1.2-0.4-1.63c-0.43-0.43-1.05-0.58-1.63-0.4l-9.96,3.15c-0.54,0.17-0.95,0.6-1.08,1.16   c-0.14,0.55,0.02,1.12,0.43,1.53L63.59,17.23z M57.73,8.68l9.96-3.15c0.06-0.02,0.13-0.03,0.19-0.03c0.16,0,0.31,0.06,0.43,0.18   c0.17,0.17,0.22,0.4,0.15,0.62l-3.15,9.96c-0.07,0.21-0.23,0.36-0.44,0.41c-0.21,0.05-0.43-0.01-0.58-0.16l-6.81-6.81   c-0.16-0.16-0.22-0.37-0.16-0.58C57.37,8.91,57.52,8.75,57.73,8.68z"/><path d="M69.42,67.39l-3.15-9.96c-0.17-0.54-0.6-0.95-1.16-1.08c-0.55-0.14-1.12,0.02-1.53,0.43l-6.81,6.82   c-0.4,0.4-0.56,0.97-0.43,1.53c0.14,0.55,0.54,0.99,1.08,1.16l9.96,3.15c0,0,0,0,0,0c0.16,0.05,0.33,0.08,0.49,0.08   c0.42,0,0.83-0.17,1.14-0.48C69.45,68.6,69.61,67.97,69.42,67.39z M68.32,68.32c-0.17,0.17-0.4,0.22-0.62,0.15l-9.96-3.15   c-0.21-0.07-0.36-0.23-0.41-0.44c-0.05-0.21,0.01-0.43,0.16-0.58l6.81-6.82c0.16-0.16,0.37-0.22,0.58-0.16   c0.21,0.05,0.38,0.2,0.44,0.41l3.15,9.96C68.54,67.92,68.48,68.15,68.32,68.32z"/><path d="M4.58,6.61l3.15,9.96c0.17,0.54,0.6,0.95,1.16,1.08c0.13,0.03,0.26,0.05,0.39,0.05c0.42,0,0.83-0.17,1.14-0.47l6.81-6.81   c0.4-0.4,0.56-0.97,0.43-1.53s-0.54-0.99-1.08-1.16L6.61,4.58c-0.58-0.18-1.2-0.03-1.63,0.4C4.55,5.4,4.39,6.03,4.58,6.61   C4.58,6.61,4.58,6.61,4.58,6.61z M5.68,5.68c0.17-0.17,0.4-0.22,0.62-0.15l9.96,3.15c0.21,0.07,0.36,0.23,0.41,0.44   c0.05,0.21-0.01,0.43-0.16,0.58l-6.81,6.81c-0.16,0.16-0.37,0.21-0.58,0.16c-0.21-0.05-0.38-0.2-0.44-0.41L5.53,6.31   C5.46,6.08,5.52,5.85,5.68,5.68z"/></g><text x="0" y="89" fill="#000000" font-size="5px" font-weight="bold" font-family="'Helvetica Neue', Helvetica, Arial-Unicode, Arial, Sans-serif">Created by Azam Ishaq</text><text x="0" y="94" fill="#000000" font-size="5px" font-weight="bold" font-family="'Helvetica Neue', Helvetica, Arial-Unicode, Arial, Sans-serif">from the Noun Project</text></svg>